<?xml version="1.0" encoding="UTF-8"?>
<svg xmlns="http://www.w3.org/2000/svg" xmlns:xlink="http://www.w3.org/1999/xlink" width="16px" height="16px" viewBox="0 0 16 16" version="1.1">
<g id="surface1">
<path style=" stroke:none;fill-rule:evenodd;fill:rgb(95.686275%,26.27451%,21.176471%);fill-opacity:1;" d="M 8 0 C 12.417969 0 16 3.582031 16 8 C 16 12.417969 12.417969 16 8 16 C 3.582031 16 0 12.417969 0 8 C 0 3.582031 3.582031 0 8 0 Z M 9.710938 4.792969 C 9.9375 4.5625 10.078125 4.378906 10.363281 4.660156 L 11.273438 5.589844 C 11.570312 5.882812 11.554688 6.054688 11.273438 6.332031 L 9.546875 8.050781 L 11.207031 9.710938 C 11.4375 9.9375 11.621094 10.078125 11.339844 10.363281 L 10.410156 11.273438 C 10.117188 11.570312 9.945312 11.554688 9.671875 11.273438 L 8 9.597656 L 6.332031 11.265625 C 6.058594 11.546875 5.886719 11.5625 5.59375 11.265625 L 4.664062 10.355469 C 4.378906 10.074219 4.5625 9.933594 4.792969 9.703125 L 6.453125 8.050781 L 4.734375 6.332031 C 4.453125 6.058594 4.4375 5.886719 4.734375 5.59375 L 5.644531 4.664062 C 5.925781 4.378906 6.066406 4.5625 6.296875 4.792969 L 8 6.503906 Z M 9.710938 4.792969 "/>
</g>
</svg>
