<?xml version="1.0" encoding="UTF-8"?>
<svg xmlns="http://www.w3.org/2000/svg" xmlns:xlink="http://www.w3.org/1999/xlink" width="16px" height="16px" viewBox="0 0 16 16" version="1.1">
<g id="surface1">
<path style=" stroke:none;fill-rule:nonzero;fill:rgb(100%,0%,0%);fill-opacity:1;" d="M 16.03125 2.75 C 16.03125 6.28125 16.03125 9.8125 16.019531 13.355469 C 15.992188 13.40625 15.96875 13.445312 15.96875 13.488281 C 15.972656 13.824219 15.851562 14.128906 15.707031 14.417969 C 15.511719 14.8125 15.234375 15.144531 14.882812 15.417969 C 14.515625 15.699219 14.117188 15.898438 13.660156 15.972656 C 13.636719 15.976562 13.617188 16.011719 13.59375 16.03125 C 9.894531 16.03125 6.195312 16.03125 2.492188 16.019531 C 2.464844 15.996094 2.441406 15.972656 2.421875 15.972656 C 1.867188 15.898438 1.398438 15.640625 1.007812 15.265625 C 0.449219 14.734375 0.0820312 14.105469 0.0898438 13.304688 C 0.0898438 13.277344 0.0507812 13.246094 0.03125 13.21875 C 0.03125 9.789062 0.03125 6.363281 0.0429688 2.925781 C 0.0703125 2.867188 0.0859375 2.8125 0.09375 2.761719 C 0.109375 2.601562 0.0976562 2.4375 0.140625 2.285156 C 0.316406 1.671875 0.640625 1.152344 1.144531 0.742188 C 1.660156 0.324219 2.246094 0.0976562 2.90625 0.0976562 C 6.3125 0.0898438 9.722656 0.09375 13.132812 0.0976562 C 13.375 0.0976562 13.621094 0.132812 13.859375 0.1875 C 14.269531 0.28125 14.617188 0.5 14.941406 0.765625 C 15.542969 1.261719 15.902344 1.882812 15.972656 2.664062 C 15.972656 2.695312 16.011719 2.722656 16.03125 2.75 M 7.53125 6.203125 C 7.050781 5.722656 6.574219 5.242188 6.09375 4.769531 C 6 4.675781 5.882812 4.605469 5.785156 4.515625 C 5.664062 4.398438 5.539062 4.425781 5.441406 4.515625 C 5.117188 4.828125 4.796875 5.144531 4.488281 5.472656 C 4.40625 5.5625 4.363281 5.691406 4.484375 5.816406 C 4.582031 5.917969 4.65625 6.042969 4.757812 6.144531 C 5.351562 6.746094 5.949219 7.339844 6.546875 7.9375 C 6.585938 7.976562 6.621094 8.019531 6.664062 8.0625 C 6.621094 8.109375 6.589844 8.144531 6.550781 8.183594 C 5.957031 8.777344 5.359375 9.375 4.765625 9.972656 C 4.660156 10.078125 4.582031 10.207031 4.476562 10.316406 C 4.367188 10.433594 4.40625 10.5625 4.484375 10.644531 C 4.796875 10.976562 5.117188 11.300781 5.449219 11.609375 C 5.53125 11.6875 5.660156 11.726562 5.78125 11.613281 C 5.878906 11.519531 6 11.449219 6.097656 11.351562 C 6.707031 10.75 7.308594 10.144531 7.914062 9.539062 C 7.949219 9.503906 7.992188 9.464844 8.046875 9.414062 C 8.089844 9.46875 8.121094 9.511719 8.15625 9.546875 C 8.820312 10.203125 9.484375 10.855469 10.148438 11.507812 C 10.382812 11.738281 10.4375 11.757812 10.695312 11.53125 C 11.011719 11.257812 11.296875 10.945312 11.582031 10.640625 C 11.6875 10.53125 11.667969 10.398438 11.574219 10.28125 C 11.496094 10.183594 11.417969 10.089844 11.328125 10.003906 C 10.726562 9.398438 10.121094 8.792969 9.519531 8.191406 C 9.480469 8.152344 9.441406 8.109375 9.398438 8.0625 C 9.441406 8.015625 9.480469 7.972656 9.519531 7.933594 C 10.121094 7.328125 10.726562 6.726562 11.328125 6.121094 C 11.414062 6.039062 11.492188 5.945312 11.558594 5.851562 C 11.695312 5.664062 11.699219 5.605469 11.539062 5.433594 C 11.238281 5.117188 10.921875 4.8125 10.609375 4.503906 C 10.519531 4.414062 10.414062 4.410156 10.316406 4.484375 C 10.1875 4.582031 10.058594 4.679688 9.949219 4.789062 C 9.347656 5.382812 8.753906 5.980469 8.15625 6.578125 C 8.117188 6.617188 8.074219 6.652344 8.019531 6.707031 C 7.855469 6.539062 7.703125 6.378906 7.53125 6.203125 Z M 7.53125 6.203125 "/>
<path style=" stroke:none;fill-rule:nonzero;fill:rgb(0%,0%,0%);fill-opacity:1;" d="M 16.03125 2.734375 C 16.011719 2.722656 15.972656 2.695312 15.972656 2.664062 C 15.902344 1.882812 15.542969 1.261719 14.941406 0.765625 C 14.617188 0.5 14.269531 0.28125 13.859375 0.1875 C 13.621094 0.132812 13.375 0.0976562 13.132812 0.0976562 C 9.722656 0.09375 6.3125 0.0898438 2.90625 0.0976562 C 2.246094 0.0976562 1.660156 0.324219 1.144531 0.742188 C 0.640625 1.152344 0.316406 1.671875 0.140625 2.285156 C 0.0976562 2.4375 0.109375 2.601562 0.09375 2.761719 C 0.0859375 2.8125 0.0703125 2.867188 0.0429688 2.914062 C 0.03125 1.949219 0.03125 0.992188 0.03125 0.03125 C 5.363281 0.03125 10.699219 0.03125 16.03125 0.03125 C 16.03125 0.929688 16.03125 1.824219 16.03125 2.734375 Z M 16.03125 2.734375 "/>
<path style=" stroke:none;fill-rule:nonzero;fill:rgb(0%,0%,0%);fill-opacity:1;" d="M 0.03125 13.234375 C 0.0507812 13.246094 0.0898438 13.277344 0.0898438 13.304688 C 0.0820312 14.105469 0.449219 14.734375 1.007812 15.265625 C 1.398438 15.640625 1.867188 15.898438 2.421875 15.972656 C 2.441406 15.972656 2.464844 15.996094 2.476562 16.019531 C 1.660156 16.03125 0.847656 16.03125 0.03125 16.03125 C 0.03125 15.105469 0.03125 14.175781 0.03125 13.234375 Z M 0.03125 13.234375 "/>
<path style=" stroke:none;fill-rule:nonzero;fill:rgb(0%,0%,0%);fill-opacity:1;" d="M 13.609375 16.03125 C 13.617188 16.011719 13.636719 15.976562 13.660156 15.972656 C 14.117188 15.898438 14.515625 15.699219 14.882812 15.417969 C 15.234375 15.144531 15.511719 14.8125 15.707031 14.417969 C 15.851562 14.128906 15.972656 13.824219 15.96875 13.488281 C 15.96875 13.445312 15.992188 13.40625 16.019531 13.367188 C 16.03125 14.257812 16.03125 15.140625 16.03125 16.03125 C 15.230469 16.03125 14.425781 16.03125 13.609375 16.03125 Z M 13.609375 16.03125 "/>
<path style=" stroke:none;fill-rule:nonzero;fill:rgb(0%,0%,0%);fill-opacity:1;" d="M 7.539062 6.210938 C 7.703125 6.378906 7.855469 6.539062 8.019531 6.707031 C 8.074219 6.652344 8.117188 6.617188 8.15625 6.578125 C 8.753906 5.980469 9.347656 5.382812 9.949219 4.789062 C 10.058594 4.679688 10.1875 4.582031 10.316406 4.484375 C 10.414062 4.410156 10.519531 4.414062 10.609375 4.503906 C 10.921875 4.8125 11.238281 5.117188 11.539062 5.433594 C 11.699219 5.605469 11.695312 5.664062 11.558594 5.851562 C 11.492188 5.945312 11.414062 6.039062 11.328125 6.121094 C 10.726562 6.726562 10.121094 7.328125 9.519531 7.933594 C 9.480469 7.972656 9.441406 8.015625 9.398438 8.0625 C 9.441406 8.109375 9.480469 8.152344 9.519531 8.191406 C 10.121094 8.792969 10.726562 9.398438 11.328125 10.003906 C 11.417969 10.089844 11.496094 10.183594 11.574219 10.28125 C 11.667969 10.398438 11.6875 10.53125 11.582031 10.640625 C 11.296875 10.945312 11.011719 11.257812 10.695312 11.53125 C 10.4375 11.757812 10.382812 11.738281 10.148438 11.507812 C 9.484375 10.855469 8.820312 10.203125 8.15625 9.546875 C 8.121094 9.511719 8.089844 9.46875 8.046875 9.414062 C 7.992188 9.464844 7.949219 9.503906 7.914062 9.539062 C 7.308594 10.144531 6.707031 10.75 6.097656 11.351562 C 6 11.449219 5.878906 11.519531 5.78125 11.613281 C 5.660156 11.726562 5.53125 11.6875 5.449219 11.609375 C 5.117188 11.300781 4.796875 10.976562 4.484375 10.644531 C 4.40625 10.5625 4.367188 10.433594 4.476562 10.316406 C 4.582031 10.207031 4.660156 10.078125 4.765625 9.972656 C 5.359375 9.375 5.957031 8.777344 6.550781 8.183594 C 6.589844 8.144531 6.621094 8.109375 6.664062 8.0625 C 6.621094 8.019531 6.585938 7.976562 6.546875 7.9375 C 5.949219 7.339844 5.351562 6.746094 4.757812 6.144531 C 4.65625 6.042969 4.582031 5.917969 4.484375 5.816406 C 4.363281 5.691406 4.40625 5.5625 4.488281 5.472656 C 4.796875 5.144531 5.117188 4.828125 5.441406 4.515625 C 5.539062 4.425781 5.664062 4.398438 5.785156 4.515625 C 5.882812 4.605469 6 4.675781 6.09375 4.769531 C 6.574219 5.242188 7.050781 5.722656 7.539062 6.210938 Z M 7.539062 6.210938 "/>
</g>
</svg>
