<?xml version="1.0" encoding="UTF-8"?>
<svg xmlns="http://www.w3.org/2000/svg" xmlns:xlink="http://www.w3.org/1999/xlink" width="16px" height="16px" viewBox="0 0 16 16" version="1.1">
<g id="surface1">
<path style=" stroke:none;fill-rule:nonzero;fill:rgb(0%,0%,0%);fill-opacity:1;" d="M 3.992188 12.148438 C 3.339844 11.5625 2.867188 10.855469 2.558594 10.101562 C 1.742188 8.09375 2.125 5.707031 3.722656 4.0625 L 5.195312 5.535156 C 5.277344 5.617188 5.421875 5.558594 5.441406 5.4375 L 6.246094 0.171875 C 6.261719 0.0820312 6.183594 0.0078125 6.097656 0.0195312 L 0.824219 0.824219 C 0.707031 0.84375 0.648438 0.992188 0.726562 1.074219 L 2.207031 2.550781 C -0.230469 5.042969 -0.648438 8.78125 0.953125 11.703125 C 1.433594 12.582031 2.097656 13.390625 2.945312 14.0625 C 4.386719 15.210938 6.160156 15.757812 7.917969 15.722656 L 8.25 13.558594 C 6.734375 13.6875 5.175781 13.21875 3.992188 12.148438 Z M 3.992188 12.148438 "/>
<path style=" stroke:none;fill-rule:nonzero;fill:rgb(0%,0%,0%);fill-opacity:1;" d="M 13.792969 13.449219 C 16.230469 10.957031 16.648438 7.21875 15.046875 4.296875 C 14.566406 3.417969 13.902344 2.609375 13.054688 1.9375 C 11.613281 0.789062 9.839844 0.242188 8.082031 0.277344 L 7.75 2.441406 C 9.261719 2.3125 10.824219 2.78125 12.007812 3.851562 C 12.660156 4.4375 13.132812 5.144531 13.441406 5.898438 C 14.257812 7.90625 13.875 10.292969 12.277344 11.9375 L 10.804688 10.464844 C 10.722656 10.382812 10.578125 10.441406 10.558594 10.5625 L 9.753906 15.828125 C 9.738281 15.917969 9.816406 15.992188 9.902344 15.980469 L 15.175781 15.175781 C 15.292969 15.15625 15.347656 15.007812 15.273438 14.925781 Z M 13.792969 13.449219 "/>
</g>
</svg>
